<svg viewBox="-17 -30.9 280.7000000000001 116.70000000000002" xmlns="http://www.w3.org/2000/svg" width="2500" height="1240"><linearGradient id="a" gradientTransform="matrix(105.7188 0 0 -85.7 19067.64 36715.918)" gradientUnits="userSpaceOnUse" x1="-180.023" x2="-180.023" y1="427.785" y2="428.785"><stop offset="0" stop-color="#e58313"/><stop offset="1" stop-color="#eaa82d"/></linearGradient><linearGradient id="b" gradientTransform="matrix(105.7188 0 0 -85.702 19067.644 36716.785)" gradientUnits="userSpaceOnUse" x1="-180.023" x2="-180.023" y1="427.785" y2="428.785"><stop offset="0" stop-color="#e07d12"/><stop offset="1" stop-color="#eaa017"/></linearGradient><linearGradient id="c" gradientTransform="matrix(105.7188 0 0 -85.7 19067.64 36715.918)" gradientUnits="userSpaceOnUse" x1="-180.523" x2="-179.523" y1="428.285" y2="428.285"><stop offset="0" stop-color="#eccc49" stop-opacity=".1"/><stop offset=".141" stop-color="#eccc49" stop-opacity=".086"/><stop offset="1" stop-color="#eccc49" stop-opacity="0"/></linearGradient><g fill="#666767"><path d="M129.9 19.7h-.1c-.1 0-.1 0-.2.1l-3 3.5c0 .1-.1.1-.1.2s0 .1.1.2c2.4 1.8 5.7 4.6 10.1 8.6 0 0 .1.1.2.1s.1 0 .2-.1c.9-1 2.1-2.3 3.5-3.9 0 0 .1-.1.1-.2s0-.1-.1-.2c-4.3-3.6-7.9-6.4-10.7-8.3zM138.9 39.1c-1.6-.5-3.2-1.2-4.9-2h-.2c-.1 0-.1.1-.1.2-1.8 9.1-3.8 16.9-5.8 23.1v.2c0 .1.1.1.1.1l5.3 1.6h.2c.1 0 .1-.1.1-.2 2.2-9.3 3.9-16.5 5.4-22.7.1-.1 0-.2-.1-.3zM132.2 3.7s-.1-.1-.2-.1-.1 0-.2.1L128.7 7s-.1.1-.1.2 0 .1.1.2c3.4 2.6 6.5 5.5 9.3 8.6 0 .1.1.1.2.1s.1 0 .2-.1l3.5-3.7s.1-.1.1-.2 0-.1-.1-.2c-3.9-3.5-7.1-6.2-9.7-8.2zM190.2 7.6h-20.5V.7c0-.1-.1-.2-.3-.2h-5.7c-.1 0-.1 0-.2.1 0 0-.1.1-.1.2v6.9H143c-.1 0-.2.1-.2.2v3.6c0 .1.1.2.2.2h8.7c.3.7.6 1.6 1 2.5.7 1.8 1.4 3.9 2.3 5.7h-5c-3.6-.1-5.2 1.3-5.2 5.4v37.5c.1.1.2.2.3.2h5.1c.1 0 .2-.1.2-.2V26.3c0-1.5.6-2.1 2.1-2.1h11.2v5.9h-10.2c-.1 0-.2.1-.2.2v3.2c0 .1.1.2.2.2h10.3V40h-8c-.1 0-.2.1-.2.2v15.3c0 .1.1.2.2.2h16.6c2.2 0 3.4-.3 4.2-1.1s1.1-2.2 1-4.5v-9.7c0-.1-.1-.2-.2-.2h-8.2v-6.4h10.5c.1 0 .2-.1.2-.2v-3.2c0-.1-.1-.2-.2-.2h-10.6v-5.9h11.2c1.7 0 2.1.9 2.1 2.7v29.2c0 1.7-1.3 2-2.5 2h-6.2c-.1 0-.1 0-.2.1 0 0-.1.1-.1.2v4.1c0 .1.1.2.2.2h8.4c3.9 0 5.9-1.9 5.9-5.6l.1-31.6c0-4-1.2-5.7-6-5.6h-4.1c1.1-2.2 2.1-4.9 2.9-7.2.1-.4.3-.8.4-1.1h9c.1 0 .2-.1.2-.2V7.9c0-.2-.1-.3-.2-.3zm-15 4.1c-.5 1.2-1.9 4.7-2.7 6.9-.2.6-.4 1.1-.6 1.4h-10.7c-.2-.4-.6-1.4-1.3-2.9-.9-2-1.9-4.4-2.3-5.3h17.6zm-14.3 40.8V44h11.3v5.8c0 2.6-.1 2.6-2.3 2.7h-.3z"/></g><g fill="#666767"><path d="M203.2 19.3h-.1c-.1 0-.1 0-.2.1l-3 3.5c0 .1-.1.1-.1.2s0 .1.1.2c2.4 1.8 5.7 4.6 10.1 8.6 0 0 .1.1.2.1s.1 0 .2-.1c.9-1 2.1-2.3 3.5-3.9 0 0 .1-.1.1-.2s0-.1-.1-.2c-4.3-3.7-7.9-6.4-10.7-8.3zM212.2 38.7c-1.6-.5-3.2-1.2-4.9-2h-.2c-.1 0-.1.1-.1.2-1.8 9.1-3.8 16.9-5.8 23.1v.2c0 .1.1.1.1.1l5.3 1.6h.2c.1 0 .1-.1.1-.2 2.3-9.3 4-16.6 5.5-22.7 0-.2-.1-.3-.2-.3zM205.6 3.2s-.1-.1-.2-.1-.1 0-.2.1l-3.1 3.3c-.1 0-.1.1-.1.2s0 .1.1.2c3.2 2.7 6.3 5.6 9.2 8.6 0 .1.1.1.2.1s.1 0 .2-.1l3.5-3.7s.1-.1.1-.2 0-.1-.1-.2c-3.9-3.5-7-6.2-9.6-8.2zM263.5 7.2h-20.4V.3c0-.1-.1-.2-.2-.2h-5.7c-.1 0-.1 0-.2.1 0 0-.1.1-.1.2v6.9h-20.6c-.1 0-.2.1-.2.2v3.6c0 .1.1.2.2.2h8.7c.3.7.6 1.6 1 2.5.7 1.8 1.4 3.9 2.3 5.7h-5c-3.6-.1-5.2 1.3-5.2 5.4v37.5c0 .1.1.2.2.2h5.1c.1 0 .2-.1.2-.2V25.8c0-1.5.6-2.1 2.1-2.1h11.2v5.9h-10.1c-.1 0-.2.1-.2.2V33c0 .1.1.2.2.2h10.3v6.3h-8c-.1 0-.2.1-.2.2V55c0 .1.1.2.2.2h16.6c2.2 0 3.4-.3 4.2-1.1s1.1-2.2 1-4.5v-9.7c0-.1-.1-.2-.2-.2h-8.2v-6.3H253c.1 0 .2-.1.2-.2V30c0-.1-.1-.2-.2-.2h-10.6v-5.9h11.2c1.7 0 2.1.9 2.1 2.7v29.2c0 1.7-1.3 2-2.5 2H247c-.1 0-.1 0-.2.1s-.1.1-.1.2v4.1c0 .1.1.2.2.2h8.3c3.9 0 5.9-1.9 5.9-5.6l.1-31.4c0-4-1.2-5.7-6-5.6h-4.1c1.1-2.2 2.1-4.9 2.9-7.2.1-.4.3-.8.4-1.1h9c.1 0 .2-.1.2-.2V7.7c.1-.4 0-.5-.1-.5zm-14.9 4c-.5 1.2-1.9 4.7-2.7 6.9-.2.6-.4 1.1-.6 1.4h-10.8c-.2-.4-.6-1.4-1.3-2.9-.9-2-1.9-4.4-2.3-5.3h17.7zm-14.3 40.9v-8.4h11.3v5.8c0 2.6-.1 2.6-2.3 2.7h-.3z"/></g><g fill="#999"><path d="M178.1 75.1v-.9h12.5v.9h-6.3v10.6h-1.2V75.1zm11.4 5.8c-1.5-1-3-1.9-4.5-2.5v-1c1.8.6 3.3 1.4 4.5 2.2zM206.8 82.2h4.8v-.7h-5.1v-1.6h5.3v-.7h-5.4v-1.6h4.4v-.7h-4.4v-1.5h5v-.7h-2.6c.2-.3.3-.7.3-1.2H208c0 .4-.1.8-.3 1.2H204c-.1-.3-.2-.7-.3-1.2h-1.1c.1.5.2.8.3 1.2h-2.6v.7h5v1.5H201v.7h4.3v1.6H200v.7h5.3v1.2c0 .1-.1.3-.1.4h-5.1v.7h4.9c-.7 1.2-2.5 2-5.2 2.4v.9c2.8-.4 4.8-1.3 6.1-2.7 1.2 1.4 3.2 2.3 6.1 2.7v-1c-2.9-.6-4.6-1.2-5.2-2.3zM127.1 76.9c.6.4 1.3.9 2.1 1.6-.3.3-.5.6-.7.8-.8-.8-1.5-1.4-2-1.7zM127.9 80.4c.3.2.7.3 1 .4-.3 1.3-.7 2.8-1.1 4.5l-1.1-.3c.4-1.3.8-2.8 1.2-4.6zM127.5 73.7c.5.4 1.2 1 1.9 1.6l-.7.7c-.6-.6-1.2-1.2-1.8-1.7zM136.6 81h-4.3v3.1h3.1c1 0 1.3-.1 1.2-1.1zm-1.6 2.4h-1.8v-1.8h2.4v1.2c0 .6 0 .6-.6.6z"/><path d="M139.2 75.2v-.7h-4.1v-1.3H134v1.3h-4.3v.7h1.8c.2.4.4 1.2.7 1.8h-1.1c-.7 0-.9.3-1 1v7.5h1v-7.2c0-.4.2-.5.6-.6h2.2V79h-2.1v.6h2.1V81h1v-1.4h2.2V79h-2.2v-1.3h2.2c.4 0 .5.2.5.6v5.8c0 .3-.2.4-.5.4h-1.2v.8h1.7c.8 0 1.1-.4 1.1-1.1v-6.3c0-.8-.3-1.1-1.2-1.1h-.9c.3-.5.5-1.2.7-1.8h1.9zm-3.7 1.7h-2.2c0-.1-.7-1.5-.8-1.8h3.7c0 .2-.6 1.7-.7 1.8zM144.8 76.9c.5.4 1.3.9 2.1 1.6-.3.3-.5.6-.7.8-.9-.8-1.5-1.4-2-1.7zM145.6 80.4c.3.2.7.3 1 .4-.3 1.3-.7 2.8-1.1 4.5l-1.1-.3c.5-1.3.9-2.8 1.2-4.6zM145.3 73.7c.5.4 1.2 1 1.9 1.6l-.7.7c-.6-.6-1.2-1.2-1.8-1.7zM154.3 81H150v3.1h3.1c1 0 1.3-.1 1.2-1.1zm-1.6 2.4H151v-1.8h2.4v1.2c-.1.6-.1.6-.7.6z"/><path d="M156.9 75.2v-.7h-4v-1.3h-1.1v1.3h-4.3v.7h1.8c.2.4.4 1.2.7 1.8h-1.1c-.7 0-.9.3-1 1v7.5h1v-7.2c0-.4.2-.5.6-.6h2.2V79h-2.1v.6h2.1V81h1v-1.4h2.2V79h-2.2v-1.3h2.2c.4 0 .5.2.5.6v5.8c0 .3-.2.4-.5.4h-1.2v.8h1.7c.8 0 1.1-.4 1.1-1.1v-6.3c0-.8-.3-1.1-1.1-1.1h-.9c.3-.5.5-1.2.7-1.8h1.7zm-3.6 1.7H151c0-.1-.7-1.5-.8-1.8h3.7c0 .2-.6 1.7-.6 1.8zM234.1 85.4v-5.3h1.1v4.4h4.2v-5.4h-4.9v-5h1.1v4.1h3.7v-4.9h1.3v4.9h3.3c.4 0 .5-.2.5-.6v-3.5h1.1v4c-.1.6-.4.9-1 1h-4v5.4h3.7c.4 0 .5-.2.5-.5v-3.9h1.2v4.2c0 .6-.5 1-1.3 1zM161.8 78.7v-1h11.4v1zM217.6 85.5l-.8-.6c.9-.7 1.7-1.6 2.3-2.6-.4-.4-1.9-2-1.9-2l.9-4.4H217v-.8h1.3l.3-1.8h1.1l-.4 1.8h1.5c.9 0 1 .3 1 1.2 0 1-.2 2-.4 2.9-.4 1.6-1.1 2.9-1.1 2.9l2 2-.7.7c-.5-.5-1.2-1.1-1.8-1.7-.4.8-1.2 1.6-2.2 2.4zm2-4.2c.7-1.3 1.3-2.9 1.3-4.9 0-.3-.2-.4-.4-.4h-1.3l-.8 4s1.1 1.2 1.2 1.3zm9.7-1.7h-3.1v4.7c0 .7-.5 1-1.4 1h-2.4v-.9h1.8c.6 0 .8-.2.8-.7v-4.3h-3.2v-.8h3.2v-1l2.7-2.7h-5.3V74h5.8c.5 0 1 .6.4 1.2-.7.7-1.4 1.4-2.5 2.6v.8h3.1v1zM252.7 85.7v-5.5c-.2.2-.4.5-.8.9 0 .1-.1.1-.1.2l-.8-.5c1-1.2 1.9-2.4 2.6-3.8h1c-.4 1-.9 1.9-.9 1.9l.1 6.9zm-.7-8.3l-.8-.5c.9-1 1.6-2.2 2.3-3.5h1.1c-.8 1.5-1.6 2.8-2.6 4zm5.8 8.2v-.8h2c.4 0 .6-.1.6-.5v-5.7h-5.2v-.8h8.5v.8h-2.2v6.1c-.1.6-.4.9-1 1h-2.7zm-1.9-10.9v-.9h7.2v.9z"/></g><path d="M36.2 35.9c18.1-.6 32.4-15 32.6-32.8v-15.4h19.9v17c-.4 27.6-24.4 49.4-52.5 50.1C7.6 54.6-16.6 32.6-17 4.7v-30.5c0-3.1 2-5.1 5.1-5.1h80.8v18.7H5.6C4-12.2 3-11.2 3-9.6V2.8c.1 18.1 14.7 32.9 33.2 33.1z" fill="url(#a)" transform="translate(17 31)"/><path d="M67.4-29.5v15.7H5.5c-2.4 0-4.1 1.6-4.1 4.1V2.8c.1 9.2 3.8 17.8 10.3 24.3s15.1 10.2 24.4 10.3h.2c18.9-.6 33.8-15.6 34-34.3v-13.9h17V4.7c-.2 12.8-5.7 25-15.4 34.1-9.6 9-22.2 14.2-35.5 14.5h-.1C22.6 53.2 9.8 48.2 0 39.1c-9.8-9.2-15.4-21.4-15.6-34.4v-30.6c0-1.1.3-2 .9-2.7.6-.6 1.5-.9 2.6-.9h.1zm1.4-1.4H-12c-3 0-5 2-5 5.1V4.7c.4 27.9 24.6 49.9 53.2 50.1 28.1-.6 52.1-22.4 52.5-50.1v-17H68.8V3.1C68.6 21 54.3 35.4 36.2 35.9c-18.5-.2-33.1-15-33.3-33.1V-9.7c0-1.6 1-2.6 2.6-2.6h63.3z" fill="url(#b)" transform="translate(17 31)"/><path d="M36.2 35.9c18.1-.6 32.4-15 32.6-32.8v-15.4h19.9v17c-.4 27.6-24.4 49.4-52.5 50.1C7.6 54.6-16.6 32.6-17 4.7v-30.5c0-3.1 2-5.1 5.1-5.1h80.8v18.7H5.6C4-12.2 3-11.2 3-9.6V2.8c.1 18.1 14.7 32.9 33.2 33.1z" fill="url(#c)" transform="translate(17 31)"/></svg>